<svg width="194" height="40" viewBox="0 0 194 40" fill="none" xmlns="http://www.w3.org/2000/svg">
<g filter="url(#filter0_d_4660_188766)">
<path d="M9.11641 23.1595V23.0689L18.0646 10.513V7.66814H4.71985V11.0043H13.125V11.0949L4.35779 23.5733V26.4828H18.0906V23.1595H9.11641ZM29.3923 13.5517V19.8233C29.3923 21.0259 29.1078 21.9569 28.5647 22.6035C28.0087 23.2629 27.3233 23.5862 26.5216 23.5862C25.694 23.5862 25.0991 23.3535 24.7371 22.888C24.375 22.4224 24.207 21.5948 24.207 20.431V13.5517H20.7414V21.3362C20.7414 22.306 20.8449 23.1336 21.0776 23.832C21.3104 24.5302 21.6336 25.0863 22.0734 25.5001C22.513 25.9139 23.0043 26.2241 23.5733 26.4181C24.1293 26.6121 24.7759 26.7026 25.5 26.7026C26.2371 26.7026 26.9354 26.5604 27.5949 26.2501C28.2543 25.9397 28.8363 25.5001 29.3406 24.9052H29.3923V26.4828H32.8578V13.5517H29.3923ZM43.6682 13.3319C42.8922 13.3319 42.181 13.5259 41.5086 13.8879C40.8363 14.2501 40.2543 14.7802 39.763 15.4526H39.7241V13.5517H36.2586V26.4828H39.7241V20.4828C39.7241 19.5001 40.0087 18.6854 40.5905 18.0518C41.1725 17.4311 41.9871 17.1078 43.0215 17.1078C43.2802 17.1078 43.5906 17.1207 43.9397 17.1466V13.3449C43.888 13.3449 43.7975 13.3319 43.6682 13.3319ZM48.0777 11.7285C48.6595 11.7285 49.1638 11.5216 49.5906 11.1078C50.0044 10.694 50.2242 10.2026 50.2242 9.60779C50.2242 9.03883 50.0044 8.53452 49.5906 8.12073C49.1638 7.70694 48.6595 7.50004 48.0777 7.50004C47.4828 7.50004 46.9656 7.70694 46.5518 8.12073C46.138 8.53452 45.931 9.03883 45.931 9.60779C45.931 9.99572 46.0216 10.3578 46.2156 10.6811C46.3966 11.0043 46.6552 11.2629 46.9914 11.444C47.3276 11.638 47.6897 11.7285 48.0777 11.7285ZM46.3448 26.4828H49.8104V13.5517H46.3448V26.4828ZM67.8751 26.4828H71.625V7.66814H67.8751V26.4828ZM83.2241 13.3319C82.4225 13.3319 81.6596 13.5001 80.9354 13.8233C80.2113 14.1466 79.5906 14.6121 79.0733 15.2199H79.0345V13.5517H75.569V26.4828H79.0345V19.9785C79.0345 18.8534 79.2931 17.9871 79.8233 17.3664C80.3535 16.7587 81.0647 16.4483 81.9698 16.4483C82.8103 16.4483 83.431 16.694 83.8448 17.1724C84.2457 17.6638 84.4526 18.4914 84.4526 19.681V26.4957H87.9181V18.8147C87.9181 17.8449 87.8018 17.0044 87.5819 16.2802C87.3492 15.569 87.0259 15.0001 86.5992 14.5733C86.1724 14.1595 85.6811 13.8492 85.125 13.6423C84.569 13.4354 83.9354 13.3319 83.2241 13.3319ZM95.263 26.7026C96.0517 26.7026 96.6983 26.6379 97.2026 26.4957C97.694 26.3664 98.1983 26.1595 98.6897 25.8879L97.7975 23.1207C97.2026 23.4311 96.6595 23.5733 96.1681 23.5733C95.7543 23.5733 95.4699 23.444 95.2888 23.1724C95.1078 22.9138 95.0302 22.4871 95.0302 21.9182V16.4224H98.5474V13.5517H95.0302V8.94832L91.5647 9.32331V13.5517H90.0388V16.4224H91.5647V22.3966C91.5647 23.819 91.888 24.8923 92.5474 25.6164C93.2069 26.3406 94.1121 26.7026 95.263 26.7026ZM112.526 19.9009C112.526 18.6465 112.254 17.5216 111.737 16.5259C111.207 15.5302 110.457 14.7544 109.5 14.1854C108.53 13.6164 107.418 13.3319 106.177 13.3319C105.272 13.3319 104.418 13.5001 103.629 13.8233C102.828 14.1595 102.155 14.6121 101.586 15.194C101.017 15.7759 100.578 16.4871 100.254 17.3147C99.9181 18.1423 99.763 19.0474 99.763 20.0043C99.763 21.3233 100.047 22.5 100.629 23.5216C101.211 24.5561 102.013 25.3449 103.022 25.8879C104.03 26.431 105.155 26.7026 106.422 26.7026C107.664 26.7026 108.75 26.4828 109.707 26.0432C110.651 25.6035 111.414 25.0087 112.009 24.2587L109.759 22.1638C108.944 23.1466 107.909 23.638 106.668 23.6251C105.841 23.6251 105.129 23.3923 104.547 22.9526C103.966 22.5129 103.578 21.9182 103.371 21.1423H112.435C112.487 20.9354 112.526 20.5216 112.526 19.9009ZM106.293 16.3837C107.017 16.3837 107.625 16.5906 108.103 16.9914C108.569 17.3923 108.905 17.9483 109.086 18.6465H103.384C103.578 17.9225 103.927 17.3535 104.444 16.9656C104.961 16.5776 105.569 16.3837 106.293 16.3837ZM122.702 13.3319C121.926 13.3319 121.216 13.5259 120.543 13.8879C119.871 14.2501 119.289 14.7802 118.797 15.4526H118.758V13.5517H115.294V26.4828H118.758V20.4828C118.758 19.5001 119.043 18.6854 119.625 18.0518C120.207 17.4311 121.022 17.1078 122.057 17.1078C122.315 17.1078 122.625 17.1207 122.975 17.1466V13.3449C122.923 13.3449 122.832 13.3319 122.702 13.3319ZM132.879 13.3319C132.078 13.3319 131.315 13.5001 130.591 13.8233C129.867 14.1466 129.246 14.6121 128.728 15.2199H128.689V13.5517H125.225V26.4828H128.689V19.9785C128.689 18.8534 128.949 17.9871 129.478 17.3664C130.009 16.7587 130.72 16.4483 131.625 16.4483C132.465 16.4483 133.087 16.694 133.5 17.1724C133.901 17.6638 134.107 18.4914 134.107 19.681V26.4957H137.573V18.8147C137.573 17.8449 137.457 17.0044 137.237 16.2802C137.004 15.569 136.681 15.0001 136.255 14.5733C135.828 14.1595 135.337 13.8492 134.78 13.6423C134.224 13.4354 133.591 13.3319 132.879 13.3319ZM145.073 26.7026C146.702 26.7026 147.943 26.3406 148.798 25.5905C149.651 24.8534 150.091 23.8836 150.091 22.6811C150.091 22.3707 150.064 22.0733 150.012 21.8147C149.845 20.9612 149.34 20.263 148.513 19.7457C148.022 19.4354 147.065 19.0216 145.643 18.4914C144.956 18.2328 144.465 18 144.155 17.7931C143.845 17.5862 143.703 17.3535 143.703 17.0949C143.703 16.7845 143.832 16.5518 144.09 16.3837C144.35 16.2155 144.633 16.1251 144.97 16.1251C145.461 16.1251 145.978 16.2415 146.521 16.4742C147.065 16.7069 147.569 17.0431 148.06 17.4958L149.741 14.9612C149.004 14.3923 148.255 13.9785 147.504 13.7199C146.742 13.4612 145.914 13.3319 145.008 13.3319C144.129 13.3319 143.328 13.5001 142.629 13.8104C141.931 14.1337 141.375 14.5863 140.961 15.1811C140.547 15.7759 140.354 16.4483 140.354 17.2113C140.354 17.6251 140.393 18 140.495 18.3363C140.587 18.6854 140.728 18.9957 140.909 19.2543C141.091 19.5259 141.297 19.7716 141.53 19.9785C141.763 20.1983 142.035 20.3923 142.358 20.5733C142.668 20.7544 142.978 20.8966 143.289 21.0259C143.599 21.1552 143.948 21.2846 144.336 21.4138C144.944 21.6208 145.397 21.7759 145.707 21.9052C146.017 22.0346 146.25 22.1768 146.431 22.332C146.599 22.4871 146.69 22.6552 146.69 22.8491C146.69 23.1724 146.548 23.4311 146.263 23.6251C145.978 23.832 145.591 23.9225 145.099 23.9225C143.78 23.9225 142.591 23.4182 141.517 22.4095L139.836 24.8018C141.272 26.069 143.018 26.7026 145.073 26.7026ZM160.487 13.3319C159.647 13.3319 158.871 13.4872 158.147 13.7845C157.422 14.0948 156.802 14.5345 156.284 15.1164H156.233V6.98279H152.768V26.4828H156.233V19.9268C156.233 18.7888 156.492 17.9354 157.035 17.3405C157.564 16.7457 158.302 16.4483 159.258 16.4483C160.112 16.4483 160.746 16.694 161.159 17.1595C161.573 17.638 161.781 18.4527 161.781 19.5905V26.4957H165.259V18.7112C165.259 17.7543 165.142 16.9138 164.909 16.2155C164.677 15.5173 164.341 14.9483 163.914 14.5345C163.475 14.1208 162.982 13.8233 162.414 13.6294C161.845 13.4354 161.211 13.3319 160.487 13.3319ZM170.457 11.7285C171.039 11.7285 171.543 11.5216 171.97 11.1078C172.384 10.694 172.603 10.2026 172.603 9.60779C172.603 9.03883 172.384 8.53452 171.97 8.12073C171.543 7.70694 171.039 7.50004 170.457 7.50004C169.862 7.50004 169.345 7.70694 168.931 8.12073C168.517 8.53452 168.31 9.03883 168.31 9.60779C168.31 9.99572 168.401 10.3578 168.595 10.6811C168.775 11.0043 169.035 11.2629 169.37 11.444C169.707 11.638 170.069 11.7285 170.457 11.7285ZM168.725 26.4828H172.19V13.5517H168.725V26.4828ZM183.298 13.3319C181.643 13.3319 180.336 13.9009 179.38 15.0388H179.328V13.5517H175.862V31.7199H179.328V25.0345H179.38C180.298 26.1466 181.564 26.7026 183.194 26.7026C184.074 26.7026 184.901 26.5475 185.664 26.2241C186.426 25.9139 187.086 25.4612 187.629 24.8923C188.172 24.3233 188.612 23.6121 188.922 22.7845C189.232 21.9569 189.388 21.0388 189.388 20.0561C189.388 19.2803 189.284 18.5561 189.091 17.8578C188.884 17.1595 188.599 16.5388 188.237 15.9957C187.875 15.4526 187.436 14.9742 186.944 14.5733C186.439 14.1725 185.871 13.8621 185.25 13.6552C184.63 13.4483 183.97 13.3319 183.298 13.3319ZM182.561 23.5992C181.926 23.5992 181.358 23.4569 180.841 23.1724C180.323 22.888 179.923 22.4613 179.625 21.9182C179.328 21.375 179.185 20.7673 179.185 20.069C179.185 19.5647 179.263 19.0863 179.431 18.6336C179.599 18.194 179.832 17.806 180.129 17.4828C180.414 17.1724 180.775 16.9138 181.189 16.7328C181.603 16.5518 182.069 16.4483 182.561 16.4483C183.504 16.4483 184.293 16.7845 184.927 17.444C185.548 18.1164 185.871 18.9828 185.871 20.069C185.871 21.1164 185.56 21.9699 184.94 22.6164C184.319 23.276 183.53 23.5992 182.561 23.5992Z" fill="black"/>
<path d="M59.222 26.8858C60.2888 26.8858 61.2134 26.5066 61.972 25.748C62.7306 24.9893 63.1336 24.0885 63.1336 23.0217C63.1336 21.9786 62.7306 21.054 61.972 20.2954C61.2134 19.5368 60.2888 19.1337 59.222 19.1337C58.1077 19.1337 57.1594 19.513 56.4008 20.2717C55.6422 21.0303 55.2629 21.9549 55.2629 23.0217C55.2629 24.1122 55.6422 25.0131 56.4008 25.7717C57.1594 26.5303 58.1077 26.8858 59.222 26.8858Z" fill="#E7332B"/>
</g>
<defs>
<filter id="filter0_d_4660_188766" x="-1" y="0" width="195.586" height="40" filterUnits="userSpaceOnUse" color-interpolation-filters="sRGB">
<feFlood flood-opacity="0" result="BackgroundImageFix"/>
<feColorMatrix in="SourceAlpha" type="matrix" values="0 0 0 0 0 0 0 0 0 0 0 0 0 0 0 0 0 0 127 0" result="hardAlpha"/>
<feOffset dy="4"/>
<feGaussianBlur stdDeviation="2"/>
<feComposite in2="hardAlpha" operator="out"/>
<feColorMatrix type="matrix" values="0 0 0 0 0 0 0 0 0 0 0 0 0 0 0 0 0 0 0.25 0"/>
<feBlend mode="normal" in2="BackgroundImageFix" result="effect1_dropShadow_4660_188766"/>
<feBlend mode="normal" in="SourceGraphic" in2="effect1_dropShadow_4660_188766" result="shape"/>
</filter>
</defs>
</svg>
